<svg xmlns="http://www.w3.org/2000/svg" viewBox="0 0 20.926 21.426">
  <defs>
    <style>
      .cls-1 {
        fill: #f9690e;
      }
    </style>
  </defs>
  <g id="pills" transform="translate(-5.975)">
    <g id="Group_96" data-name="Group 96" transform="translate(5.975 0)">
      <g id="Group_95" data-name="Group 95" transform="translate(0)">
        <path id="Path_185" data-name="Path 185" class="cls-1" d="M19.532,3.118A4.187,4.187,0,0,0,15.486,0a4.222,4.222,0,0,0-3.65,2.1L9.187,6.685h0L6.538,11.275A4.2,4.2,0,0,0,13.611,15.8q.011-.015.02-.031L19.115,6.3A4.164,4.164,0,0,0,19.532,3.118ZM12.917,15.331a3.366,3.366,0,0,1-5.654-3.638L9.7,7.467l.906.523h0l4.916,2.838ZM18.39,5.882,15.944,10.1l-4.555-2.63L12.56,5.447a.418.418,0,1,0-.725-.418L10.664,7.056l-.544-.314,2.44-4.226A3.383,3.383,0,0,1,15.486.837a3.367,3.367,0,0,1,2.9,5.045Z" transform="translate(-5.975 0)"/>
      </g>
    </g>
    <g id="Group_98" data-name="Group 98" transform="translate(15.649 13.893)">
      <g id="Group_97" data-name="Group 97">
        <path id="Path_186" data-name="Path 186" class="cls-1" d="M246.554,332.454a16.126,16.126,0,0,0-7.589,0c-1.214.347-1.83.835-1.832,1.451v3.722c0,.618.615,1.108,1.829,1.454a16.18,16.18,0,0,0,7.595,0c1.214-.347,1.829-.836,1.829-1.454v-3.72C248.386,333.29,247.77,332.8,246.554,332.454Zm-7.359.8a15.317,15.317,0,0,1,7.129,0c1.009.288,1.223.6,1.225.648h0c0,.051-.217.36-1.225.648a15.315,15.315,0,0,1-7.129,0c-1.012-.289-1.225-.6-1.225-.649S238.184,333.548,239.2,333.258Zm8.354,4.369c0,.06-.217.363-1.222.65a15.371,15.371,0,0,1-7.135,0c-1-.287-1.222-.59-1.222-.65v-2.65a5.15,5.15,0,0,0,.995.383,16.128,16.128,0,0,0,7.589,0,5.15,5.15,0,0,0,.995-.383v1.044a8.779,8.779,0,0,1-2.185.7.418.418,0,1,0,.16.822,10.2,10.2,0,0,0,2.025-.6Z" transform="translate(-237.134 -332.001)"/>
      </g>
    </g>
    <g id="Group_100" data-name="Group 100" transform="translate(12.401 3.73)">
      <g id="Group_99" data-name="Group 99">
        <path id="Path_187" data-name="Path 187" class="cls-1" d="M160.154,89.2a.418.418,0,0,0-.572.153l-.007.012a.418.418,0,1,0,.725.418l.007-.012A.418.418,0,0,0,160.154,89.2Z" transform="translate(-159.52 -89.145)"/>
      </g>
    </g>
    <g id="Group_102" data-name="Group 102" transform="translate(22.275 18.787)">
      <g id="Group_101" data-name="Group 101" transform="translate(0)">
        <path id="Path_188" data-name="Path 188" class="cls-1" d="M396.332,449.333a.418.418,0,0,0-.458-.375h-.009a.418.418,0,0,0,.039.835l.04,0h.014A.418.418,0,0,0,396.332,449.333Z" transform="translate(-395.486 -448.956)"/>
      </g>
    </g>
  </g>
</svg>
