<svg xmlns="http://www.w3.org/2000/svg" viewBox="0 0 15.041 21.425">
  <defs>
    <style>
      .cls-1 {
        fill: #f9690e;
      }
    </style>
  </defs>
  <g id="user_2_" data-name="user (2)" transform="translate(-73)">
    <g id="Group_193" data-name="Group 193" transform="translate(73)">
      <path id="Path_591" data-name="Path 591" class="cls-1" d="M75.116,12.746a7.873,7.873,0,1,0-.1-.1A.444.444,0,0,0,75.116,12.746Zm5.4,1.43a6.627,6.627,0,0,1-4.3-1.578c1.95-.647,2.672-1.434,2.938-1.959a3.169,3.169,0,0,0,1.246.254h.1a3.184,3.184,0,0,0,1.338-.3c.249.525.958,1.338,2.965,2A6.594,6.594,0,0,1,80.521,14.176ZM78.09,6.13V6.1a2.249,2.249,0,0,1,2.3-2.457h.14a2.251,2.251,0,0,1,2.3,2.457V6.13a4.9,4.9,0,0,1-.765,3.236,2.022,2.022,0,0,1-1.587.66h-.026a2.03,2.03,0,0,1-1.587-.66A4.889,4.889,0,0,1,78.09,6.13ZM80.521.866a6.652,6.652,0,0,1,5,11.045c-2.825-.822-2.934-1.819-2.934-1.832V10.1h-.031c.052-.052.1-.1.157-.162a5.678,5.678,0,0,0,.979-3.892,3.113,3.113,0,0,0-3.161-3.271h-.14a3.111,3.111,0,0,0-3.161,3.271,5.712,5.712,0,0,0,.979,3.892c.07.079.144.153.219.223-.092.254-.555,1.058-2.9,1.745a6.649,6.649,0,0,1,5-11.041Z" transform="translate(-73 0)"/>
      <path id="Path_592" data-name="Path 592" class="cls-1" d="M109.933,401.566h10.979a.433.433,0,0,0,0-.866H109.933a.431.431,0,0,0-.433.433A.437.437,0,0,0,109.933,401.566Z" transform="translate(-107.904 -383.18)"/>
      <path id="Path_593" data-name="Path 593" class="cls-1" d="M161.684,470.633a.431.431,0,0,0-.433-.433h-7.118a.433.433,0,1,0,0,.866h7.123A.433.433,0,0,0,161.684,470.633Z" transform="translate(-150.171 -449.641)"/>
    </g>
  </g>
</svg>
